# xmcd
#
# Track frame offsets:
#	150
#	31922
#	59654
#	78456
#	102628
#	130360
#	160067
#	181996
#	208041
#	229239
#	260548
#	283333
#	305103
#
# Disc length: 4366 seconds
#
# Revision: 0
# Processed by: cddbd v1.5.1PL0 Copyright (c) Steve Scherf et al.
# Submitted via: dBpowerAMP V4.0
#
DISCID=c6110c0d
DTITLE=Various Artist - Bannu Rani
DYEAR=1900
DGENRE=Rhythmic Soul
TTITLE0=Rihale masti - Lata
TTITLE1=Dil De diya hai - Anand raj Anand
TTITLE2=Bannu Rani - Alka 
TTITLE3=Tum Ne Na jana - Abhi jeet
TTITLE4=Dil  De diya hai - Anand raj anand
TTITLE5=Tere Naam - Alka
TTITLE6=Jane kyun loag  - Sonu Nigham
TTITLE7=Dekhaa jab se tum ko - Sonu  Nigham
TTITLE8=Tum Se  milna - Alka
TTITLE9=Dil  ne ye kaha  - Udit  Narayan
TTITLE10=Nila Asma sogaya - Amitabh
TTITLE11=Yaara - unnown
TTITLE12=Lehra ke  - Asha
EXTD=Bannu Rani Bari Shiyani
EXTT0=
EXTT1=
EXTT2=
EXTT3=
EXTT4=
EXTT5=
EXTT6=
EXTT7=
EXTT8=
EXTT9=
EXTT10=
EXTT11=
EXTT12=
PLAYORDER=
